<svg width="40" height="40" viewBox="0 0 40 40" fill="none" xmlns="http://www.w3.org/2000/svg">
<path fill-rule="evenodd" clip-rule="evenodd" d="M6.63635 23.2273V21.5682H8.29544H8.91776H14.9318V23.2273H9.36996C10.9394 27.6801 15.0657 30.8591 19.9091 30.8591C25.3351 30.8591 29.8612 26.8692 30.9004 21.5682H33.1818C32.1139 28.1594 26.5779 33.1818 19.9091 33.1818C14.9591 33.1818 10.6332 30.4147 8.29544 26.2929V29.8636H6.63635V23.2273Z" fill="#35938F"/>
<path fill-rule="evenodd" clip-rule="evenodd" d="M8.9017 18.25C9.93356 12.949 14.4278 8.95908 19.8157 8.95908C24.6249 8.95908 28.7221 12.138 30.2806 16.5908H24.8864V18.2499H30.7296C30.7296 18.2499 30.7296 18.25 30.7296 18.25H32.995L32.9949 18.2499H33.1818L33.1818 16.5908L33.1818 9.95442H31.5227V13.846C29.2468 9.54759 24.8572 6.63635 19.8157 6.63635C13.1938 6.63635 7.69674 11.6588 6.63635 18.25H8.9017Z" fill="#35938F"/>
</svg>
